:SAMPLES-PER-SECOND 30
:FRAME-RANGE 1-2775
:FULLY-SPECIFIED
:DEGREES
1388
root  -22.9895 38.7002 -1.31373 -12.2557 55.8712 -10.2471
RightUpLeg  -6.42373 2.02423 10.769
RightLeg  21.8289 -4.02327 -1.98712
RightFoot  -13.6584 -0.102694 -0.508535
RightToes  1.218e-010 1.26228e-014 -6.01869e-014
Spine  -2.90007 -0.69939 4.56754
Spine1  3.80211 0.959735 -5.71959
HEad  5.62 3.70907 1.27513
LeftShoulder1  1.21875 -2.79419 -13.2229
LeftArm  -12.4906 9.07758 -17.3567
LeftForeArm  -32.675 4.31287 -5.16344
LeftHand  0.373672 0.0512374 -8.19133
RightShoulder  -0.00622635 -0.840708 -10.7236
RightArm  -57.0873 21.0426 -13.6597
RightForeArm  9.97208 -2.41057 -11.4407
RightHand  0.0315443 1.92978 0.334328
LeftUpLeg  -20.6849 4.66466 8.07949
LeftLeg  56.7147 1.51315 3.00433
LeftFoot  -4.19523 0.381005 -5.69654
LeftToes  5.08156e-010 -6.90346e-011 -6.33378e-011
1389
root  -22.1312 38.7908 -0.893606 -11.0391 55.1832 -9.1792
RightUpLeg  -4.67228 2.1179 10.0682
RightLeg  21.0085 -3.27141 -1.62822
RightFoot  -14.8186 -0.106139 -0.193751
RightToes  1.218e-010 1.26228e-014 -6.01869e-014
Spine  -2.80465 -0.469113 3.79996
Spine1  3.45039 1.09263 -5.96254
HEad  5.32835 3.85252 1.17011
LeftShoulder1  1.17763 -2.56649 -13.3043
LeftArm  -12.7864 9.54024 -17.014
LeftForeArm  -32.5446 4.70584 -4.92411
LeftHand  0.367132 0.12756 -8.17651
RightShoulder  -0.0048205 -0.719208 -10.8222
RightArm  -56.6107 20.8764 -13.1886
RightForeArm  10.4687 -2.72809 -11.2981
RightHand  -0.00234482 1.69043 -0.189871
LeftUpLeg  -22.4714 5.01205 8.16012
LeftLeg  49.8363 2.87141 4.08612
LeftFoot  -5.04358 0.330673 -5.459
LeftToes  5.08156e-010 -6.90346e-011 -6.33378e-011
1390
root  -21.2601 38.8498 -0.475954 -9.85208 54.6162 -8.3194
RightUpLeg  -3.10216 1.59981 9.34459
RightLeg  20.2177 -2.43041 -1.23032
RightFoot  -15.9533 -0.128373 -0.508099
RightToes  1.218e-010 1.26228e-014 -6.01869e-014
Spine  -3.06585 -0.293109 2.95289
Spine1  3.40249 1.18137 -6.1351
HEad  5.22073 4.02499 1.09448
LeftShoulder1  1.15008 -2.40844 -13.3837
LeftArm  -13.1104 10.0298 -16.8195
LeftForeArm  -32.2945 4.89819 -4.70773
LeftHand  0.356635 0.244072 -8.14139
RightShoulder  -0.00271726 -0.571835 -10.6593
RightArm  -56.6475 20.7935 -12.7365
RightForeArm  11.5068 -2.60444 -11.284
RightHand  -0.0137073 1.47587 -0.368754
LeftUpLeg  -23.6137 5.21609 8.29274
LeftLeg  41.4185 4.145 4.29444
LeftFoot  -3.91472 0.338538 -4.85327
LeftToes  5.08156e-010 -6.90346e-011 -6.33378e-011
1391
root  -20.3625 38.8756 -0.0631899 -8.88004 54.2451 -7.72455
RightUpLeg  -1.54665 1.57066 8.71906
RightLeg  19.4244 -1.98334 -1.02885
RightFoot  -17.0309 -0.134874 -0.395812
RightToes  1.218e-010 1.26228e-014 -6.01869e-014
Spine  -3.45724 -0.181112 2.16863
Spine1  3.5342 1.25612 -6.36391
HEad  5.18086 4.14186 1.07339
LeftShoulder1  1.13978 -2.34983 -13.4127
LeftArm  -12.5284 10.3243 -16.6684
LeftForeArm  -33.1583 4.93823 -4.9079
LeftHand  0.332323 0.441082 -7.92348
RightShoulder  -0.000812993 -0.520527 -10.4206
RightArm  -55.9204 20.83 -12.3605
RightForeArm  11.5699 -2.80499 -10.9128
RightHand  -0.0316814 1.44776 -0.673773
LeftUpLeg  -24.0038 5.35215 8.58749
LeftLeg  32.0583 5.83766 4.27761
LeftFoot  -1.94203 0.423757 -5.01192
LeftToes  5.08156e-010 -6.90346e-011 -6.33378e-011
1392
root  -19.4274 38.8831 0.352228 -8.22403 54.1245 -7.42435
RightUpLeg  0.176848 1.11003 8.13015
RightLeg  18.4935 -1.37698 -0.75989
RightFoot  -17.9393 -0.144884 -0.408228
RightToes  1.218e-010 1.26228e-014 -6.01869e-014
Spine  -3.86643 -0.164267 1.39531
Spine1  3.7445 1.25577 -6.50425
HEad  5.17822 4.15553 1.02021
LeftShoulder1  1.15138 -2.36642 -13.5731
LeftArm  -12.9031 10.1927 -16.6671
LeftForeArm  -32.7906 5.54803 -4.70626
LeftHand  0.327833 0.536649 -7.98698
RightShoulder  -8.24171e-005 -0.443929 -10.1725
RightArm  -55.4771 20.8905 -11.9784
RightForeArm  12.0208 -2.8137 -10.6424
RightHand  -0.0257518 1.22952 -0.571029
LeftUpLeg  -23.7887 5.43728 8.93051
LeftLeg  22.3615 8.14481 3.99419
LeftFoot  0.819477 0.532124 -5.04127
LeftToes  5.08156e-010 -6.90346e-011 -6.33378e-011
1393
root  -18.4359 38.8573 0.775637 -7.69687 54.2267 -7.31995
RightUpLeg  1.99416 0.879606 7.68035
RightLeg  17.3892 -1.37711 -0.737556
RightFoot  -18.66 -0.152582 -0.411973
RightToes  1.218e-010 1.26228e-014 -6.01869e-014
Spine  -4.54345 -0.242701 0.746389
Spine1  4.22794 1.24107 -6.78702
HEad  5.23925 4.06029 1.10775
LeftShoulder1  1.14941 -2.35324 -13.5869
LeftArm  -12.6345 9.94636 -16.7388
LeftForeArm  -33.2291 5.82931 -4.82453
LeftHand  0.319252 0.644357 -7.97506
RightShoulder  -0.00147392 -0.315161 -10.0568
RightArm  -54.2075 20.9616 -11.6627
RightForeArm  11.7312 -3.58361 -10.1395
RightHand  -0.0328426 1.3324 -0.694724
LeftUpLeg  -23.3331 6.17038 8.91547
LeftLeg  12.868 9.23472 2.98198
LeftFoot  3.93536 0.725777 -5.58818
LeftToes  5.08156e-010 -6.90346e-011 -6.33378e-011
1394
root  -17.392 38.7946 1.19421 -7.32077 54.4544 -7.13474
RightUpLeg  4.01215 0.591051 7.03526
RightLeg  16.4345 -1.0841 -0.625703
RightFoot  -19.4705 -0.143042 -0.159063
RightToes  1.218e-010 1.26228e-014 -6.01869e-014
Spine  -4.90464 -0.282231 0.0414973
Spine1  4.56781 1.29099 -7.0399
HEad  5.44518 3.71434 1.14634
LeftShoulder1  1.16892 -2.43202 -13.6545
LeftArm  -12.6023 9.42683 -16.829
LeftForeArm  -33.3328 5.84235 -4.9226
LeftHand  0.314311 0.715435 -7.9849
RightShoulder  -0.00423222 -0.224305 -10.1867
RightArm  -53.1962 20.8692 -11.1478
RightForeArm  11.4956 -4.13188 -9.83463
RightHand  -0.0117194 1.41407 -0.33238
LeftUpLeg  -22.5608 6.18834 8.69146
LeftLeg  4.7348 7.61162 2.28726
LeftFoot  5.037 0.996011 -7.12859
LeftToes  5.08156e-010 -6.90346e-011 -6.33378e-011
1395
root  -16.2819 38.6605 1.60859 -6.80176 54.5195 -6.57251
RightUpLeg  6.01708 1.37232 6.51216
RightLeg  16.2118 -2.07553 -0.981735
RightFoot  -20.6178 -0.0980342 0.511777
RightToes  1.218e-010 1.26228e-014 -6.01869e-014
Spine  -5.30755 -0.248865 -0.615121
Spine1  5.12612 1.51919 -7.67428
HEad  5.45099 3.34155 1.19254
LeftShoulder1  1.16691 -2.42966 -13.625
LeftArm  -12.5898 8.69786 -16.8028
LeftForeArm  -33.2248 5.86336 -5.02437
LeftHand  0.310466 0.763345 -7.97873
RightShoulder  -0.00708168 -0.0262181 -10.1291
RightArm  -52.35 20.8796 -10.8303
RightForeArm  10.9909 -4.18967 -9.50573
RightHand  -0.00560049 1.33066 -0.222647
LeftUpLeg  -22.3487 5.38753 8.4609
LeftLeg  0.934109 5.23522 2.24368
LeftFoot  2.03987 0.53331 -4.65122
LeftToes  5.08156e-010 -6.90346e-011 -6.33378e-011
1396
root  -15.1209 38.3962 1.99641 -6.33798 54.3831 -5.91833
RightUpLeg  7.52644 3.10654 6.23235
RightLeg  17.6149 -4.04558 -1.65327
RightFoot  -22.5817 -0.0380081 1.16797
RightToes  1.218e-010 1.26228e-014 -6.01869e-014
Spine  -5.19866 -0.0834466 -1.16804
Spine1  5.16818 1.80249 -8.27444
HEad  5.62942 2.93921 1.2456
LeftShoulder1  1.153 -2.36032 -13.6286
LeftArm  -12.7247 7.87868 -16.7444
LeftForeArm  -33.2015 5.86812 -5.04768
LeftHand  0.31215 0.77922 -7.97602
RightShoulder  -0.00833142 0.079004 -10.0761
RightArm  -51.7474 20.9787 -10.5032
RightForeArm  10.7158 -4.23238 -9.26368
RightHand  -0.000840237 1.16511 -0.127724
LeftUpLeg  -23.239 5.38293 8.1356
LeftLeg  3.11317 5.57651 2.33533
LeftFoot  -1.39566 0.540385 -6.11182
LeftToes  5.08156e-010 -6.90346e-011 -6.33378e-011
